<?xml version="1.0" standalone="no"?>
<!DOCTYPE svg PUBLIC "-//W3C//DTD SVG 20010904//EN"
 "http://www.w3.org/TR/2001/REC-SVG-20010904/DTD/svg10.dtd">
<svg version="1.0" xmlns="http://www.w3.org/2000/svg"
 width="300.000000pt" height="215.000000pt" viewBox="0 0 300.000000 215.000000"
 preserveAspectRatio="xMidYMid meet">
<metadata>
Created by potrace 1.10, written by Peter Selinger 2001-2011
</metadata>
<g transform="translate(0.000000,215.000000) scale(0.100000,-0.100000)"
fill="#000000" stroke="none">
<path d="M1957 1930 c-27 -5 -50 -10 -52 -12 -2 -2 51 -3 118 -3 103 -1 131
-4 178 -23 161 -64 249 -240 205 -413 -9 -35 -30 -93 -46 -129 -22 -47 -25
-58 -10 -40 11 14 32 57 47 95 24 61 28 84 28 175 0 116 -17 167 -78 237 -81
93 -241 139 -390 113z"/>
<path d="M1891 1886 c3 -3 36 -8 75 -11 273 -23 428 -194 388 -430 -6 -38 -10
-71 -9 -73 11 -13 30 88 30 158 0 109 -29 174 -114 252 -79 74 -147 100 -276
106 -55 2 -97 2 -94 -2z"/>
<path d="M1405 1863 c-58 -11 -161 -36 -174 -43 -97 -45 -122 -60 -161 -90
-81 -62 -139 -122 -184 -189 -55 -82 -104 -184 -112 -234 -8 -49 -20 -54 -51
-26 -24 22 -23 19 6 -24 18 -27 36 -45 41 -40 4 4 12 34 19 66 17 78 89 218
149 291 99 119 245 213 392 252 98 26 283 23 380 -6 236 -69 420 -243 495
-465 42 -125 48 -283 15 -407 -82 -317 -268 -556 -612 -786 l-107 -72 -49 29
c-220 130 -417 306 -526 470 -97 145 -157 331 -160 492 -2 106 -2 107 -35 145
-19 21 -44 60 -57 88 -13 28 -24 45 -24 38 0 -17 26 -67 66 -125 32 -47 34
-52 33 -142 0 -91 13 -168 51 -285 23 -72 98 -228 120 -250 3 -3 23 -27 45
-55 126 -159 355 -343 518 -416 33 -15 45 -9 162 71 264 180 441 371 512 550
67 171 95 274 102 379 4 59 11 113 16 121 8 13 6 13 -8 1 -18 -15 -22 -5 -7
19 5 8 5 19 0 25 -4 5 -16 39 -25 75 -56 218 -198 384 -418 489 -71 33 -96 41
-125 36 -30 -4 -33 -4 -14 4 12 6 22 12 22 13 0 5 -273 6 -295 1z"/>
<path d="M1418 1809 c-224 -25 -428 -170 -538 -381 -99 -189 -109 -418 -27
-613 77 -185 254 -348 442 -409 294 -95 619 38 799 327 134 215 153 471 51
686 -129 270 -419 426 -727 390z m223 -34 c94 -20 151 -41 220 -82 71 -42 171
-137 218 -206 30 -44 78 -149 86 -187 2 -8 8 -35 14 -60 18 -78 3 -268 -25
-322 -8 -15 -14 -33 -14 -40 0 -7 -23 -52 -50 -99 -67 -116 -195 -246 -287
-293 -41 -21 -40 -21 -46 12 -12 58 -28 67 -116 67 -70 1 -84 4 -103 23 -22
21 -22 22 -3 36 14 10 22 11 27 3 7 -11 28 32 28 57 0 17 38 66 51 66 5 0 -7
-32 -26 -71 -31 -60 -33 -69 -15 -59 28 15 56 76 64 140 10 88 14 111 20 118
3 3 6 -2 6 -10 0 -9 7 -29 15 -44 8 -16 19 -52 25 -81 15 -70 30 -77 30 -13 0
32 -8 66 -21 92 -18 34 -19 45 -9 67 l12 26 25 -50 c14 -27 32 -57 40 -66 12
-14 11 -21 -6 -50 -27 -49 -36 -80 -19 -74 13 5 51 71 62 106 3 13 13 16 41
12 37 -5 75 16 75 41 0 6 -24 61 -54 122 -57 116 -78 137 -129 127 -41 -8 -32
2 26 30 63 30 77 46 106 118 26 66 23 95 -21 212 -33 85 -70 137 -99 137 -27
0 -36 -25 -43 -130 -3 -52 -9 -105 -12 -118 -7 -23 -205 -172 -230 -172 -18 0
-179 106 -220 145 -19 18 -30 68 -32 145 -2 41 -6 89 -9 105 -5 27 -7 28 -14
10 -11 -29 -11 -114 2 -199 l11 -75 123 -85 c68 -48 128 -86 135 -86 7 0 68
39 136 86 l123 87 8 66 c4 36 8 99 8 138 0 40 3 73 8 73 25 0 117 -208 117
-266 0 -11 -11 -47 -24 -80 l-24 -59 -111 -45 -111 -45 -15 -53 c-15 -52 -103
-222 -114 -222 -12 1 -101 171 -116 222 l-15 55 -108 43 c-59 24 -111 49 -117
55 -5 7 -19 38 -29 69 -19 56 -19 60 -2 124 20 76 58 156 88 189 25 26 19 40
-9 22 -31 -19 -63 -72 -90 -151 -34 -99 -34 -152 3 -224 24 -49 37 -63 79 -84
90 -46 89 -45 27 -45 l-57 0 -60 -117 c-54 -107 -58 -118 -47 -143 12 -26 16
-27 56 -22 l44 6 11 -42 c5 -24 22 -54 36 -67 30 -28 31 -23 5 38 l-20 47 36
68 c34 64 37 67 50 49 12 -18 11 -25 -11 -64 -19 -32 -25 -58 -25 -103 0 -68
16 -65 26 4 3 24 17 67 30 95 21 46 22 53 8 73 -13 21 -13 23 6 23 12 0 20 -7
21 -17 0 -10 2 -36 5 -58 3 -22 7 -61 8 -87 2 -27 4 -52 5 -57 0 -5 17 -30 36
-56 20 -25 33 -50 30 -55 -9 -14 -49 -12 -63 2 -9 9 -15 9 -24 0 -7 -7 -22
-12 -34 -12 -35 0 -74 -37 -74 -71 0 -38 -17 -37 -76 3 -117 79 -222 215 -275
356 -31 82 -33 94 -33 222 0 121 3 143 27 215 16 44 37 92 47 107 11 15 20 30
20 34 0 12 75 107 121 153 82 82 214 153 344 184 41 10 192 5 256 -8z m-370
-741 c80 -24 87 -29 93 -55 5 -28 126 -248 136 -249 12 0 140 240 140 264 0 9
15 19 38 25 20 6 60 17 87 26 59 18 65 18 65 5 0 -5 25 -60 55 -121 31 -62 54
-113 52 -115 -1 -2 -25 3 -52 10 -44 11 -53 18 -83 67 -18 30 -36 59 -40 65
-5 8 -23 8 -64 0 l-58 -10 0 -74 c0 -69 -2 -75 -34 -110 -19 -20 -49 -57 -67
-82 -17 -25 -34 -47 -36 -50 -3 -3 -9 3 -14 13 -6 9 -37 50 -70 91 l-59 74 0
69 0 69 -60 10 -59 10 -37 -63 c-33 -57 -40 -63 -87 -77 -28 -8 -53 -14 -54
-12 -4 4 110 245 116 245 2 1 43 -11 92 -25z m140 -360 c10 -30 22 -48 30 -46
16 4 59 -18 59 -30 0 -5 -17 -7 -37 -6 -36 3 -40 7 -75 73 -43 82 -46 93 -16
73 12 -8 29 -37 39 -64z m-71 -136 c0 -30 0 -31 20 -13 17 16 20 16 20 2 0 -9
-5 -19 -11 -22 -7 -5 -5 -13 6 -25 10 -11 12 -20 6 -24 -5 -4 -17 4 -25 16
-13 18 -16 19 -16 5 0 -9 -4 -17 -10 -17 -6 0 -10 27 -10 61 0 37 4 58 10 54
6 -3 10 -20 10 -37z m190 -13 c0 -31 5 -45 17 -49 12 -5 13 -10 5 -18 -8 -8
-15 -8 -27 2 -17 14 -22 126 -5 115 6 -3 10 -26 10 -50z m-104 -9 c-1 -30 -4
-58 -8 -62 -5 -4 -8 13 -8 39 0 25 -3 52 -6 61 -4 10 -1 16 8 16 10 0 14 -14
14 -54z m44 9 c0 -33 4 -45 15 -45 8 0 15 -4 15 -10 0 -5 -11 -10 -25 -10 -24
0 -25 3 -25 55 0 30 5 55 10 55 6 0 10 -20 10 -45z m-170 5 c0 -5 -9 -10 -21
-10 -21 0 -21 0 1 -18 27 -22 19 -42 -16 -42 -30 0 -32 20 -1 21 l22 0 -22 11
c-35 17 -30 48 7 48 17 0 30 -4 30 -10z m280 -20 c0 -20 5 -30 15 -30 10 0 15
10 15 30 0 17 5 30 10 30 14 0 12 -64 -2 -78 -16 -16 -23 -15 -42 4 -18 17
-22 74 -6 74 6 0 10 -13 10 -30z m140 10 c15 -28 -4 -60 -35 -60 -16 0 -25 -6
-25 -15 0 -8 -4 -15 -10 -15 -11 0 -14 69 -4 94 9 24 61 21 74 -4z m-145 -101
c8 -12 -18 -17 -94 -17 -81 0 -113 6 -105 19 7 11 193 9 199 -2z"/>
<path d="M1667 513 c-14 -13 -7 -33 11 -33 24 0 32 8 25 26 -5 15 -25 19 -36
7z"/>
<path d="M860 1770 c-91 -16 -165 -63 -195 -122 -26 -54 -16 -64 15 -15 52 82
110 109 290 135 l65 9 -65 0 c-36 1 -85 -3 -110 -7z"/>
<path d="M933 1745 c-110 -17 -143 -30 -190 -70 -41 -35 -90 -105 -73 -105 5
0 25 20 46 46 54 65 108 93 227 116 152 29 146 37 -10 13z"/>
<path d="M2121 1664 c-22 -27 -18 -47 13 -73 22 -19 64 -5 78 24 9 19 7 29 -6
50 -22 33 -58 33 -85 -1z m53 0 c21 -8 21 -50 0 -58 -32 -12 -57 27 -32 52 14
14 12 14 32 6z"/>
<path d="M1480 235 c0 -61 4 -95 9 -86 12 18 12 154 0 172 -5 9 -9 -23 -9 -86z"/>
</g>
</svg>
