 <svg version="1.0" xmlns="http://www.w3.org/2000/svg"  width="300.000000pt" height="215.000000pt" viewBox="0 0 300.000000 215.000000"  preserveAspectRatio="xMidYMid meet">  <g transform="translate(0.000000,215.000000) scale(0.100000,-0.100000)" fill="#076778" stroke="none"> <path d="M2019 1936 c-2 -2 -26 -5 -54 -7 -27 -1 -61 -6 -75 -10 -14 -5 -38 -10 -55 -13 -16 -3 -63 -15 -104 -26 -56 -15 -105 -20 -200 -20 -139 0 -223 -10 -270 -34 -16 -9 -39 -16 -49 -16 -10 0 -29 -9 -42 -20 -12 -11 -32 -18 -44 -16 -11 2 -15 1 -8 -1 7 -3 -14 -24 -45 -47 -127 -93 -263 -282 -293 -406 -8 -30 -17 -59 -21 -64 -21 -24 -95 144 -97 223 -3 62 -12 65 -12 4 0 -70 33 -168 75 -225 19 -27 39 -48 43 -48 4 0 15 32 24 71 57 235 245 442 479 526 65 23 92 27 224 30 147 3 152 2 246 -30 127 -43 198 -87 289 -177 89 -89 139 -171 173 -283 39 -127 42 -155 36 -262 -5 -77 -15 -125 -42 -207 -66 -195 -139 -318 -271 -456 -137 -144 -394 -330 -439 -318 -47 11 -268 168 -357 252 -129 123 -206 223 -261 339 -67 139 -101 272 -101 393 0 94 0 97 -34 137 -51 63 -87 150 -94 230 -7 67 -11 62 -14 -15 -2 -61 33 -146 90 -217 33 -40 34 -44 33 -130 0 -87 20 -204 47 -269 8 -19 15 -37 15 -41 5 -30 78 -183 96 -201 7 -8 27 -33 44 -58 16 -24 40 -55 52 -67 12 -13 45 -48 72 -77 43 -45 153 -137 229 -190 11 -8 23 -18 24 -22 2 -5 10 -8 18 -8 8 0 14 -5 14 -12 0 -6 3 -8 6 -5 4 4 21 -4 37 -16 17 -12 49 -29 71 -38 l40 -16 115 79 c202 137 306 228 391 342 19 26 40 52 46 59 30 34 108 189 120 237 0 3 4 12 7 20 30 71 58 183 62 247 3 43 8 93 10 111 2 19 0 30 -6 27 -13 -9 -11 9 3 23 9 9 10 15 2 20 -6 4 -23 46 -37 93 -33 107 -71 190 -97 214 -11 10 -20 23 -20 28 0 6 -31 40 -68 76 -72 70 -190 146 -255 165 -22 6 -40 16 -40 21 -5 31 229 51 323 27 115 -29 214 -101 258 -189 33 -65 44 -158 27 -229 -15 -67 -38 -123 -68 -167 -11 -16 -17 -30 -14 -33 6 -7 47 62 79 131 32 71 33 219 1 288 -33 71 -115 152 -192 189 -57 27 -80 32 -166 36 -84 4 -118 0 -213 -23 -132 -32 -162 -28 -40 5 179 48 314 60 404 36 281 -75 352 -355 163 -640 -22 -32 -37 -61 -34 -64 3 -3 6 -3 8 -1 1 2 17 25 35 51 18 26 44 73 58 105 14 32 31 69 37 82 7 14 12 70 12 135 0 97 -3 117 -24 155 -45 86 -122 151 -217 185 -40 14 -157 29 -165 22z"/> <path d="M1942 1813 c4 -21 33 -25 33 -3 0 8 -8 16 -18 18 -14 3 -18 -1 -15 -15z m28 -3 c0 -5 -4 -10 -10 -10 -5 0 -10 5 -10 10 0 6 5 10 10 10 6 0 10 -4 10 -10z"/> <path d="M1375 1804 c-97 -18 -236 -83 -314 -147 -112 -94 -200 -233 -242 -383 -35 -124 -31 -269 10 -395 70 -216 252 -402 462 -472 176 -59 387 -33 544 67 62 40 74 44 54 19 -13 -16 -12 -17 4 -4 9 8 15 16 12 19 -7 7 25 42 38 42 6 0 2 -10 -9 -22 -18 -21 -17 -21 8 1 15 13 26 26 25 30 -1 3 3 8 8 9 17 6 35 24 31 31 -2 3 18 35 45 71 187 245 211 568 61 815 -106 175 -296 295 -511 324 -103 14 -125 13 -226 -5z m210 -15 c172 -17 300 -80 425 -209 154 -160 216 -400 159 -622 -54 -215 -214 -408 -420 -507 l-42 -21 21 23 c35 37 27 79 -19 102 -18 10 -36 12 -51 7 -41 -15 -93 -7 -118 18 -22 22 -24 22 -36 6 -8 -12 -17 -15 -26 -10 -19 13 -60 13 -85 1 -18 -8 -27 -7 -43 8 -18 16 -22 17 -37 3 -10 -8 -31 -19 -48 -22 -36 -9 -45 -21 -45 -63 0 -18 -5 -33 -10 -33 -37 0 -141 78 -218 163 -66 73 -109 150 -144 256 -36 109 -39 264 -8 385 68 258 283 461 540 510 81 15 95 16 205 5z m-245 -1251 c0 -30 0 -31 20 -13 17 16 20 16 20 2 0 -9 -5 -19 -11 -22 -7 -5 -5 -13 5 -24 9 -10 13 -21 9 -25 -4 -4 -15 3 -25 16 -15 19 -18 20 -18 6 0 -10 -4 -18 -10 -18 -5 0 -10 25 -10 55 0 30 5 55 10 55 6 0 10 -14 10 -32z m85 22 c3 -5 -1 -10 -9 -10 -9 0 -16 5 -16 10 0 6 4 10 9 10 6 0 13 -4 16 -10z m45 -35 c0 -33 4 -45 15 -45 8 0 15 -4 15 -10 0 -5 -11 -10 -25 -10 -24 0 -25 3 -25 55 0 30 5 55 10 55 6 0 10 -20 10 -45z m60 1 c0 -31 5 -46 16 -50 8 -3 12 -10 9 -16 -4 -7 -13 -7 -26 0 -15 8 -19 21 -19 60 0 28 5 50 10 50 6 0 10 -20 10 -44z m-230 4 c0 -5 -9 -10 -21 -10 -21 0 -21 0 1 -18 13 -11 20 -24 16 -30 -9 -15 -56 -16 -56 -1 0 6 7 9 15 6 8 -4 17 -2 20 3 3 5 -4 11 -15 15 -20 6 -26 25 -13 38 10 11 53 8 53 -3z m122 -30 c2 -22 0 -40 -4 -40 -5 0 -8 18 -8 40 0 22 2 40 4 40 2 0 6 -18 8 -40z m160 8 c4 -46 28 -49 28 -4 0 20 5 36 10 36 19 0 11 -69 -9 -79 -24 -13 -51 14 -51 52 0 38 18 34 22 -5z m132 13 c25 -27 5 -65 -30 -58 -18 3 -24 0 -24 -14 0 -11 -4 -19 -10 -19 -11 0 -14 69 -4 94 8 22 47 20 68 -3z m-106 -90 c41 -2 23 -19 -33 -31 -78 -16 -247 2 -278 30 -7 6 205 7 311 1z"/> <path d="M1177 1558 c-32 -37 -61 -96 -77 -160 -6 -24 -14 -50 -17 -58 -8 -20 -5 -45 13 -100 24 -75 34 -88 88 -110 28 -12 69 -30 91 -40 22 -10 48 -20 58 -23 9 -4 17 -11 17 -17 0 -10 -19 -8 -72 7 -10 2 -30 6 -45 9 -16 3 -35 7 -44 9 -8 3 -26 -6 -39 -20 -13 -14 -21 -25 -17 -25 3 0 -9 -30 -27 -67 -64 -134 -65 -136 -55 -156 7 -12 16 -16 31 -11 11 3 35 8 53 9 28 3 32 1 27 -17 -5 -19 30 -102 49 -113 14 -9 11 9 -10 59 l-20 45 36 65 c34 61 37 64 50 46 12 -17 11 -24 -12 -59 -20 -32 -25 -54 -25 -101 0 -38 4 -59 10 -55 6 3 10 27 10 52 0 31 9 61 30 99 16 30 25 54 20 54 -6 0 -10 5 -10 11 0 6 -10 19 -22 30 -19 15 -20 18 -6 19 9 0 28 -4 42 -10 23 -8 26 -15 26 -59 0 -28 5 -61 11 -75 9 -20 9 -29 -1 -41 -10 -12 -8 -24 14 -68 24 -49 66 -101 66 -82 0 5 -16 37 -35 72 -19 35 -35 66 -35 69 0 2 10 -2 23 -11 15 -9 28 -33 36 -65 14 -53 31 -76 31 -41 0 26 12 27 35 1 23 -25 31 -25 52 0 22 26 31 25 35 -2 3 -17 8 -8 22 32 18 54 41 90 58 90 4 0 -8 -31 -27 -70 -19 -38 -35 -72 -35 -76 0 -19 35 27 56 73 26 56 30 83 14 83 -7 0 -6 9 2 23 7 12 13 42 14 67 1 25 2 51 3 58 1 15 48 35 62 26 6 -3 -1 -17 -15 -31 -26 -26 -25 -40 6 -96 7 -12 15 -47 18 -77 4 -41 9 -56 22 -58 23 -5 71 80 66 116 l-4 28 51 -11 c57 -14 84 -4 77 28 -2 10 -26 63 -53 118 -27 55 -49 104 -49 109 0 16 -38 21 -80 11 -22 -6 -58 -16 -81 -22 -23 -6 -43 -8 -46 -5 -6 6 88 52 117 58 8 2 17 5 20 8 3 3 24 14 47 24 37 16 45 26 67 82 14 35 26 75 26 89 0 45 -56 193 -90 237 -19 23 -35 45 -37 47 -2 3 -10 -2 -17 -10 -9 -8 -17 -47 -21 -94 -10 -131 -16 -169 -28 -184 -15 -18 -103 -83 -142 -105 -16 -9 -42 -26 -56 -37 -26 -21 -27 -21 -55 -3 -16 10 -31 21 -34 24 -3 4 -37 28 -77 54 -39 26 -78 55 -87 65 -14 15 -31 124 -39 246 -3 51 -23 55 -60 13z m45 -37 c-2 -33 1 -98 8 -146 l12 -86 105 -72 c158 -109 148 -104 179 -86 15 9 73 49 129 89 l103 72 12 99 c7 54 10 116 8 139 -2 22 0 40 3 40 17 0 71 -100 96 -177 l28 -85 -26 -71 -25 -71 -112 -45 -113 -46 -16 -54 c-15 -53 -101 -221 -112 -221 -13 1 -99 168 -114 221 l-17 56 -112 45 -112 46 -24 63 c-24 64 -24 64 -7 134 19 78 56 159 87 193 12 12 22 22 23 22 1 0 -1 -27 -3 -59z m114 -507 c14 -4 24 -16 28 -36 6 -29 126 -247 136 -248 10 0 131 220 136 250 5 24 14 32 43 40 20 5 59 16 86 25 59 17 65 18 65 6 0 -5 24 -60 54 -123 30 -62 54 -114 53 -115 -2 -1 -25 4 -52 11 -44 11 -53 18 -83 67 -18 30 -36 59 -40 65 -5 9 -22 9 -64 1 l-58 -10 0 -72 c0 -69 -1 -73 -42 -121 -24 -28 -54 -67 -68 -87 -27 -40 -35 -44 -43 -24 -3 7 -32 47 -66 89 l-61 76 0 69 0 69 -59 10 -59 10 -31 -51 c-17 -27 -35 -56 -39 -63 -8 -12 -112 -45 -112 -36 0 2 27 58 60 124 l60 119 67 -20 c38 -11 78 -22 89 -25z m451 -288 l-26 -51 0 53 c-1 33 -9 68 -22 94 -18 34 -19 45 -9 67 12 26 12 25 47 -43 l35 -70 -25 -50z"/> <path d="M1208 1261 c-9 -11 -24 -32 -33 -48 l-17 -28 26 30 c26 29 50 65 44 65 -2 0 -11 -9 -20 -19z"/> <path d="M1770 1266 c0 -2 8 -10 18 -17 15 -13 16 -12 3 4 -13 16 -21 21 -21 13z"/> <path d="M1660 501 c0 -24 25 -34 40 -16 15 18 5 35 -21 35 -12 0 -19 -7 -19 -19z"/> <path d="M1032 1789 c-9 -3 -42 -7 -72 -8 -71 -3 -166 -27 -210 -54 -67 -40 -122 -125 -100 -153 17 -19 27 -18 34 4 6 16 54 71 88 98 33 27 67 37 174 55 63 10 122 23 132 29 13 9 9 10 -22 5 -21 -4 -81 -13 -133 -21 -123 -18 -185 -51 -227 -118 -17 -26 -32 -43 -34 -37 -2 5 10 30 27 55 43 62 127 102 245 116 92 11 186 29 186 35 0 5 -68 1 -88 -6z"/> <path d="M2054 1719 c-10 -17 13 -36 27 -22 12 12 4 33 -11 33 -5 0 -12 -5 -16 -11z m26 -9 c0 -5 -4 -10 -10 -10 -5 0 -10 5 -10 10 0 6 5 10 10 10 6 0 10 -4 10 -10z"/> <path d="M2130 1668 c-26 -29 -22 -55 12 -76 25 -15 28 -15 47 3 27 24 27 60 -1 79 -29 21 -33 20 -58 -6z m60 -38 c0 -23 -28 -34 -46 -19 -19 16 -17 36 3 48 21 11 43 -3 43 -29z"/> <path d="M752 1628 c-9 -9 -8 -16 4 -29 14 -16 18 -16 31 -3 12 12 13 18 3 29 -15 18 -22 19 -38 3z m28 -8 c0 -5 -4 -10 -10 -10 -5 0 -10 5 -10 10 0 6 5 10 10 10 6 0 10 -4 10 -10z"/> <path d="M2294 1189 c-3 -6 -1 -16 5 -22 9 -9 11 -8 5 6 -6 15 -3 16 21 7 15 -6 30 -9 32 -6 2 2 -10 8 -26 14 -21 7 -33 8 -37 1z"/> <path d="M995 560 c27 -27 51 -50 54 -50 3 0 -17 23 -44 50 -27 28 -51 50 -54 50 -3 0 17 -22 44 -50z"/> <path d="M1780 430 c-30 -16 -51 -29 -47 -30 10 0 107 49 107 55 0 7 1 7 -60 -25z"/> <path d="M1583 363 c9 -2 23 -2 30 0 6 3 -1 5 -18 5 -16 0 -22 -2 -12 -5z"/> <path d="M1513 353 c9 -2 23 -2 30 0 6 3 -1 5 -18 5 -16 0 -22 -2 -12 -5z"/> <path d="M1479 278 c-1 -99 2 -142 12 -153 5 -5 9 35 9 103 0 68 -4 112 -10 112 -5 0 -10 -28 -11 -62z"/> </g> </svg> 