<?xml version="1.0" standalone="no"?>
<!DOCTYPE svg PUBLIC "-//W3C//DTD SVG 20010904//EN"
 "http://www.w3.org/TR/2001/REC-SVG-20010904/DTD/svg10.dtd">
<svg version="1.0" xmlns="http://www.w3.org/2000/svg"
 width="1024.000000pt" height="733.000000pt" viewBox="0 0 1024.000000 733.000000"
 preserveAspectRatio="xMidYMid meet">

<g transform="translate(0.000000,733.000000) scale(0.100000,-0.100000)"
fill="#000000" stroke="none">
<path d="M0 3665 l0 -3665 5120 0 5120 0 0 3665 0 3665 -5120 0 -5120 0 0
-3665z m7310 2831 c257 -66 423 -153 581 -303 91 -87 174 -196 163 -214 -4 -8
-3 -9 4 -5 21 13 40 -43 30 -87 -5 -22 -7 -45 -4 -51 2 -6 5 -1 5 12 1 28 21
29 21 1 0 -15 5 -19 16 -15 11 4 14 1 10 -12 -3 -9 2 -30 9 -47 13 -26 14 -27
9 -5 -4 21 -3 22 6 7 6 -10 23 -61 37 -115 21 -81 26 -127 30 -272 4 -152 2
-189 -17 -279 -46 -227 -166 -514 -303 -729 -67 -107 -192 -278 -210 -289 -6
-3 0 8 14 26 194 258 375 618 396 786 2 22 9 45 14 50 7 7 8 3 4 -10 -5 -16
-5 -17 3 -5 7 8 7 19 2 25 -5 6 -5 37 0 75 14 96 12 254 -5 348 -8 45 -17 87
-20 92 -3 6 -4 10 0 10 3 0 10 -10 15 -22 8 -22 9 -22 9 -2 1 11 6 25 13 32 8
8 9 12 1 12 -6 0 -14 -6 -16 -12 -3 -7 -6 0 -6 16 -1 20 -5 27 -15 23 -8 -3
-16 2 -19 14 -4 15 -2 19 9 15 8 -3 13 -2 11 2 -2 4 -7 16 -11 27 -5 12 -10
15 -14 8 -4 -7 -14 5 -24 28 -9 22 -13 37 -9 35 4 -3 14 6 21 19 10 18 10 28
2 38 -7 8 -9 17 -5 20 3 4 1 7 -5 7 -15 0 -15 -6 -1 -32 8 -14 8 -23 0 -31 -8
-8 -11 -8 -11 2 0 7 -5 9 -12 5 -7 -4 -8 -3 -4 5 5 7 5 24 1 39 -7 25 -8 26
-16 7 -7 -14 -8 -6 -5 29 2 30 1 43 -5 35 -5 -8 -9 -23 -9 -34 0 -14 -8 -6
-26 25 -15 25 -27 50 -27 57 0 7 -5 11 -11 10 -6 -1 -10 6 -10 15 1 10 -1 16
-5 13 -4 -2 -25 18 -45 45 -52 68 -195 202 -279 261 -90 63 -266 150 -382 188
-321 105 -720 97 -1195 -25 -147 -37 -360 -103 -373 -115 -5 -4 35 -17 90 -29
199 -45 449 -135 602 -216 622 -332 1064 -902 1231 -1586 52 -214 64 -321 64
-578 0 -370 -37 -564 -185 -970 -187 -511 -308 -741 -568 -1079 -99 -129 -177
-216 -361 -405 -313 -320 -611 -556 -1101 -873 -161 -105 -290 -183 -301 -183
-4 0 -8 193 -8 429 l0 430 43 5 c23 3 92 10 152 16 520 50 1035 303 1438 704
108 107 197 203 180 192 -19 -11 -16 10 4 29 13 13 13 19 4 25 -9 5 -10 10 -2
14 6 4 11 2 11 -3 0 -7 7 -7 20 1 23 15 25 25 8 31 -7 2 -5 3 4 2 10 -2 21 1
24 6 3 5 -3 9 -13 10 -16 0 -16 1 2 9 12 5 14 9 6 9 -11 1 -10 5 4 21 10 11
22 17 28 13 6 -3 7 -1 3 5 -6 11 38 82 57 90 4 2 7 10 7 17 0 8 11 22 25 33
13 11 21 22 18 26 -3 3 2 6 13 7 10 0 13 3 7 6 -10 3 -10 10 -2 24 5 11 14 17
19 14 6 -3 7 0 5 8 -3 7 7 31 23 53 15 21 31 47 35 57 3 9 12 17 19 17 9 0 8
-3 -2 -10 -10 -6 -11 -10 -3 -10 7 0 26 27 43 60 29 57 40 91 20 60 -12 -18
-12 -2 0 25 5 11 9 14 9 8 1 -19 18 -16 24 5 2 9 8 26 13 36 6 15 4 18 -9 13
-14 -5 -15 -3 -5 18 6 13 15 22 19 19 5 -3 6 1 3 9 -3 8 7 41 21 73 64 144
128 396 161 629 31 227 7 586 -57 840 -123 488 -388 909 -774 1233 -429 360
-983 554 -1580 555 -337 1 -578 -45 -890 -170 -168 -67 -253 -111 -405 -210
-261 -171 -455 -352 -630 -588 -259 -350 -416 -725 -482 -1150 -29 -188 -31
-525 -5 -695 30 -192 94 -417 170 -595 16 -38 36 -95 44 -125 8 -30 20 -59 27
-65 7 -5 11 -15 9 -22 -2 -6 5 -17 15 -25 11 -7 19 -15 19 -18 -2 -18 13 -51
21 -46 5 3 14 -7 21 -22 11 -25 10 -26 -4 -8 -19 25 -19 16 0 -20 8 -16 15
-22 15 -14 1 11 7 8 20 -9 15 -18 18 -27 9 -37 -12 -14 -4 -34 13 -34 5 0 7 7
4 16 -6 14 -4 15 9 4 11 -9 13 -15 5 -20 -12 -8 4 -47 25 -62 6 -5 5 -8 -3 -8
-7 0 -17 11 -22 24 -12 33 -27 40 -33 16 -3 -11 -1 -20 4 -20 5 0 9 -4 9 -9 0
-12 122 -192 169 -250 35 -43 153 -161 236 -236 50 -45 214 -169 260 -197 19
-11 35 -24 35 -28 0 -4 12 -11 26 -14 20 -5 23 -10 14 -20 -8 -11 -8 -15 2
-18 10 -4 10 -12 1 -41 -6 -20 -7 -35 -2 -31 5 3 9 -1 9 -9 0 -10 -8 -13 -25
-9 -25 4 -29 -2 -25 -41 1 -10 -4 -25 -11 -33 -9 -11 -8 -18 10 -33 27 -23 26
-26 -4 -29 -20 -1 -25 3 -25 22 0 13 -7 27 -16 30 -8 3 -12 2 -9 -4 3 -6 1
-10 -4 -10 -6 0 -12 5 -12 10 -1 6 -2 16 -3 23 -1 6 -9 11 -19 9 -16 -3 -21 7
-18 38 1 12 0 12 -7 2 -8 -12 -45 25 -238 239 -179 199 -340 434 -449 654 -78
158 -180 404 -171 413 3 3 10 -6 16 -19 25 -59 -3 44 -31 113 -16 40 -27 62
-24 48 14 -67 14 -72 0 -35 -59 149 -133 462 -156 660 -12 97 -7 460 7 532 5
27 1 37 -23 60 -56 52 -164 184 -207 251 -142 220 -218 470 -214 706 l1 111 7
-125 c9 -156 22 -226 64 -349 45 -130 104 -249 179 -359 59 -86 188 -245 194
-239 1 2 14 61 28 133 52 262 111 436 225 669 125 254 278 463 499 684 399
400 885 639 1451 713 132 17 477 14 626 -5 l122 -16 93 30 c288 91 544 156
784 199 234 42 313 49 530 46 189 -3 220 -6 315 -30z m-615 -326 c0 -22 -29
-18 -33 3 -3 14 1 18 15 15 10 -2 18 -10 18 -18z m-2648 -16 c-9 -9 -28 6 -21
18 4 6 10 6 17 -1 6 -6 8 -13 4 -17z m-218 -58 c-7 -7 -266 -73 -354 -90 -44
-9 -170 -27 -279 -41 -252 -32 -346 -55 -473 -115 -193 -91 -317 -208 -414
-387 -31 -56 -59 -81 -59 -52 0 22 76 155 125 220 98 130 226 223 392 282 109
39 185 52 548 93 129 14 390 61 460 83 33 10 61 14 54 7z m3251 -271 c0 -8 -5
-17 -11 -21 -14 -8 -29 14 -22 32 6 16 33 7 33 -11z m351 -165 c30 -17 52 -68
45 -106 -8 -39 -57 -84 -92 -84 -33 0 -81 25 -94 49 -19 37 -12 100 15 126 26
27 89 34 126 15z m-4773 -144 c2 -10 -1 -23 -7 -29 -15 -15 -46 16 -37 38 8
21 40 15 44 -9z m1506 -318 c-7 -179 5 -381 36 -578 31 -201 37 -222 73 -246
18 -11 129 -89 247 -173 118 -84 299 -209 403 -278 174 -117 189 -125 213
-115 34 16 360 235 509 342 95 68 211 151 343 245 6 5 43 211 58 327 8 68 18
237 21 376 3 138 9 252 13 252 18 0 142 -177 189 -269 86 -168 211 -543 211
-635 0 -34 -36 -143 -118 -355 -46 -120 -28 -106 -247 -196 -77 -32 -207 -86
-290 -121 -82 -34 -176 -72 -207 -84 l-57 -21 -42 -132 c-23 -73 -49 -159 -59
-192 -15 -51 -65 -156 -90 -190 -5 -5 -58 -102 -120 -215 -61 -113 -115 -209
-119 -213 -10 -10 -54 60 -216 342 -107 187 -121 217 -165 360 -74 236 -72
233 -112 253 -40 21 -311 136 -555 236 l-163 66 -39 91 c-63 144 -121 322
-121 372 0 25 6 68 14 96 8 29 31 113 52 187 77 280 155 438 282 573 30 31 57
57 58 57 2 0 1 -73 -2 -162z m3706 -1163 c0 -8 -4 -15 -10 -15 -5 0 -10 7 -10
15 0 8 5 15 10 15 6 0 10 -7 10 -15z m160 5 c0 -5 -4 -10 -10 -10 -5 0 -10 5
-10 10 0 6 5 10 10 10 6 0 10 -4 10 -10z m-3700 -521 c157 -45 288 -87 292
-93 4 -6 16 -48 26 -93 14 -62 38 -117 97 -224 114 -208 362 -619 374 -619 16
1 278 441 398 670 29 54 60 133 73 183 15 55 29 91 40 97 34 18 515 151 553
153 l38 2 113 -235 c168 -352 269 -570 264 -575 -10 -10 -342 71 -349 85 -8
14 -250 423 -253 427 -1 2 -58 -9 -127 -22 -68 -14 -156 -28 -196 -31 l-72 -7
-3 -253 -3 -254 -72 -72 c-79 -81 -195 -226 -322 -403 -71 -98 -86 -114 -94
-99 -15 27 -163 231 -233 320 -34 44 -103 124 -153 177 l-91 97 0 245 0 245
-39 0 c-21 0 -90 9 -152 20 -63 11 -134 23 -159 26 l-45 5 -34 -53 c-67 -102
-163 -264 -191 -319 l-29 -57 -173 -41 c-95 -23 -176 -41 -180 -41 -4 0 26 69
66 153 220 455 327 667 338 667 7 0 141 -37 298 -81z m21 -539 c9 -12 3 -28
-28 -75 -52 -78 -119 -203 -126 -235 -3 -14 -7 -98 -8 -188 -1 -89 -6 -159
-10 -155 -7 8 -149 320 -149 328 0 2 12 21 26 42 14 21 45 76 69 123 43 85
128 234 148 258 7 10 17 1 39 -35 15 -26 33 -55 39 -63z m1649 15 c29 -49 72
-130 97 -180 25 -49 56 -105 69 -122 l25 -33 -75 -147 c-111 -220 -105 -219
-106 -16 l0 172 -75 146 -74 147 42 63 c23 35 43 63 44 62 0 -1 25 -42 53 -92z
m-3182 -256 c-3 -8 -7 -3 -11 10 -4 17 -3 21 5 13 5 -5 8 -16 6 -23z m4472
-53 c0 -2 -7 -9 -15 -16 -13 -11 -14 -10 -9 4 5 14 24 23 24 12z m-2544 -229
c6 -7 25 -66 42 -132 17 -66 38 -141 46 -167 8 -27 13 -48 11 -48 -9 0 -235
418 -235 435 0 6 122 -72 136 -88z m859 71 c-9 -26 -204 -399 -216 -412 -5 -6
1 24 12 65 12 41 33 120 48 176 l26 103 65 44 c36 24 66 45 68 45 2 1 0 -9 -3
-21z m-2229 -490 l29 -33 -32 29 c-18 17 -33 31 -33 33 0 8 8 1 36 -29z m1187
-127 c4 -19 7 -70 5 -113 -2 -45 1 -78 7 -78 5 0 32 25 60 55 55 59 70 66 80
36 9 -28 -10 -65 -47 -94 l-33 -26 49 -50 c32 -33 47 -55 43 -65 -11 -29 -42
-17 -97 39 -30 30 -58 55 -62 55 -4 0 -8 -24 -10 -52 -3 -45 -6 -53 -23 -53
-19 0 -20 8 -23 193 l-2 193 22 -3 c15 -2 24 -13 31 -37z m644 27 c4 -7 10
-80 13 -163 l5 -150 43 -3 c44 -3 56 -24 30 -50 -26 -26 -118 -3 -132 33 -3 9
-6 91 -6 181 0 156 1 164 19 164 11 0 23 -6 28 -12z m-359 -10 c27 -27 2 -75
-32 -62 -16 6 -23 54 -9 67 10 11 28 8 41 -5z m136 6 c14 -5 16 -28 16 -154 0
-167 -1 -165 78 -158 35 3 37 1 37 -27 0 -28 -3 -30 -40 -33 -58 -5 -114 14
-125 43 -7 18 -8 319 -1 333 2 4 19 2 35 -4z m-561 -106 c11 -35 -5 -47 -66
-50 -79 -4 -84 -21 -14 -52 31 -13 60 -33 66 -44 15 -28 14 -64 -2 -86 -16
-22 -81 -36 -134 -29 -37 5 -43 9 -43 29 0 21 5 23 62 26 50 2 63 6 66 20 3
13 -11 24 -51 42 -80 35 -100 84 -52 131 21 22 33 25 94 25 46 0 71 -4 74 -12z
m1410 -27 c41 -38 42 -42 42 -101 0 -58 -2 -63 -37 -95 -47 -44 -79 -52 -129
-32 -38 15 -39 15 -44 -6 -2 -12 -6 -40 -7 -62 -2 -32 -7 -40 -23 -40 -19 0
-20 8 -23 150 -2 96 2 159 9 177 13 32 49 46 122 47 42 1 53 -3 90 -38z m-975
-104 c2 -107 0 -128 -13 -133 -36 -14 -45 13 -45 136 0 64 3 120 7 124 4 4 16
6 28 4 19 -3 20 -11 23 -131z m519 121 c6 -7 13 -49 16 -92 6 -80 15 -99 52
-110 41 -12 50 7 53 114 4 97 5 101 25 98 21 -3 22 -9 25 -121 l3 -118 -41
-18 c-54 -24 -105 -14 -142 29 -26 28 -28 36 -28 123 0 52 3 97 7 100 10 10
19 8 30 -5z m-1498 -320 c1 -5 -3 -8 -9 -8 -5 0 -10 12 -9 28 0 24 1 25 9 7 5
-11 9 -23 9 -27z m9 -36 c6 -18 -15 -14 -22 4 -4 10 -1 14 6 12 6 -2 14 -10
16 -16z m-44 -51 c3 -5 0 -11 -8 -14 -8 -3 -17 1 -20 9 -6 15 19 20 28 5z"/>
<path d="M8090 5813 c0 -5 5 -15 10 -23 8 -12 10 -11 10 8 0 12 -4 22 -10 22
-5 0 -10 -3 -10 -7z"/>
<path d="M8030 5786 c0 -24 17 -28 23 -6 3 13 0 20 -9 20 -8 0 -14 -6 -14 -14z"/>
<path d="M8064 5644 c3 -9 6 -18 6 -20 0 -2 5 -4 11 -4 8 0 9 4 0 13 -6 8 -8
17 -4 20 3 4 1 7 -6 7 -8 0 -11 -6 -7 -16z"/>
<path d="M8101 5624 c0 -11 3 -14 6 -6 3 7 2 16 -1 19 -3 4 -6 -2 -5 -13z"/>
<path d="M8134 5437 c-2 -7 -1 -24 4 -38 9 -22 10 -20 10 14 0 38 -5 47 -14
24z"/>
<path d="M8120 4891 c0 -5 -3 -16 -6 -25 -3 -9 -2 -16 3 -16 5 0 10 11 11 25
1 14 0 25 -3 25 -3 0 -5 -4 -5 -9z"/>
<path d="M8101 4824 c0 -11 3 -14 6 -6 3 7 2 16 -1 19 -3 4 -6 -2 -5 -13z"/>
<path d="M2920 2590 c0 -5 5 -10 11 -10 5 0 7 5 4 10 -3 6 -8 10 -11 10 -2 0
-4 -4 -4 -10z"/>
<path d="M3010 2420 c0 -8 5 -22 10 -30 9 -13 10 -13 10 0 0 8 -5 22 -10 30
-9 13 -10 13 -10 0z"/>
<path d="M3060 2331 c0 -6 4 -13 10 -16 6 -3 7 1 4 9 -7 18 -14 21 -14 7z"/>
<path d="M7065 2330 c3 -5 8 -10 11 -10 2 0 4 5 4 10 0 6 -5 10 -11 10 -5 0
-7 -4 -4 -10z"/>
<path d="M3770 1403 c0 -4 5 -15 10 -23 8 -13 10 -13 10 2 0 9 -4 20 -10 23
-5 3 -10 3 -10 -2z"/>
<path d="M5686 1758 c-23 -32 -20 -94 4 -118 28 -28 81 -26 108 3 29 30 30 89
2 117 -29 29 -94 27 -114 -2z"/>
</g>
</svg>
