<?xml version="1.0" standalone="no"?>
<!DOCTYPE svg PUBLIC "-//W3C//DTD SVG 20010904//EN"
 "http://www.w3.org/TR/2001/REC-SVG-20010904/DTD/svg10.dtd">
<svg version="1.0" xmlns="http://www.w3.org/2000/svg"
 width="285.000000pt" height="302.000000pt" viewBox="0 0 285.000000 302.000000"
 preserveAspectRatio="xMidYMid meet">

<g transform="translate(0.000000,302.000000) scale(0.100000,-0.100000)"
fill="#FFFFFF" stroke="none">
<path d="M0 1510 l0 -1510 1425 0 1425 0 0 1510 0 1510 -1425 0 -1425 0 0
-1510z m576 1182 c0 -237 5 -285 50 -530 14 -77 20 -93 38 -98 11 -4 39 -22
60 -40 22 -19 45 -34 52 -34 7 0 14 -3 16 -7 5 -12 86 -73 96 -73 4 0 26 -15
48 -33 21 -18 79 -59 129 -92 49 -33 97 -66 105 -73 8 -8 66 -47 128 -88 110
-71 115 -73 141 -59 15 7 33 21 40 29 8 9 18 16 23 16 13 0 143 86 186 122 18
15 37 28 43 28 5 0 32 17 58 38 62 47 128 94 150 107 9 6 37 27 62 48 26 20
49 37 53 37 5 0 76 52 123 90 32 26 69 329 80 655 l6 189 49 -54 c27 -30 55
-68 63 -85 8 -16 28 -50 43 -75 16 -25 31 -54 34 -65 3 -11 20 -51 36 -90 17
-38 50 -131 74 -205 36 -115 43 -148 43 -220 0 -87 0 -88 -62 -228 -13 -29
-23 -56 -23 -61 0 -4 -10 -33 -23 -65 -24 -59 -44 -79 -89 -90 -15 -3 -55 -19
-90 -35 -35 -16 -73 -32 -86 -36 -13 -4 -57 -22 -98 -41 -41 -19 -80 -34 -86
-34 -5 0 -42 -15 -82 -34 -39 -18 -91 -40 -115 -48 -41 -13 -45 -18 -61 -69
-74 -232 -107 -321 -136 -369 -19 -31 -34 -58 -34 -62 0 -4 -18 -36 -40 -70
-22 -35 -40 -70 -40 -79 0 -8 -6 -21 -12 -27 -7 -7 -31 -47 -53 -89 -44 -83
-60 -97 -74 -61 -5 13 -21 40 -35 61 -14 21 -36 57 -47 80 -12 23 -31 56 -44
72 -12 17 -26 41 -30 54 -4 14 -22 45 -39 70 -37 54 -80 142 -94 191 -28 102
-87 267 -99 282 -8 9 -26 19 -41 23 -14 3 -53 19 -86 34 -34 16 -72 32 -86 36
-14 4 -50 20 -80 35 -30 15 -73 33 -95 40 -22 7 -67 26 -99 41 -33 16 -66 29
-73 29 -35 0 -95 43 -110 78 -8 20 -25 60 -38 87 -12 28 -27 66 -33 85 -6 19
-23 71 -37 115 -25 77 -25 82 -10 135 8 30 20 80 27 110 36 172 130 403 212
519 21 31 109 126 111 121 0 0 0 -107 1 -238z m13 -1347 c59 -19 115 -35 124
-35 8 0 72 -18 141 -40 l126 -41 14 -52 c8 -29 17 -68 20 -88 4 -21 18 -54 32
-74 13 -20 38 -62 55 -93 46 -87 61 -113 98 -172 36 -56 54 -87 105 -182 15
-29 40 -69 55 -88 14 -19 31 -43 36 -54 19 -36 23 -33 100 89 17 27 37 60 45
74 8 14 32 52 52 84 21 32 38 65 38 72 0 8 5 17 10 20 6 4 29 41 51 83 22 42
58 109 79 147 37 66 80 184 80 218 0 17 69 46 188 78 43 12 129 36 193 55 64
19 125 34 135 34 15 0 35 -32 87 -142 37 -79 86 -181 108 -228 96 -200 109
-228 134 -283 15 -32 25 -61 21 -64 -3 -3 -53 6 -110 21 -58 14 -118 26 -134
26 -39 0 -57 16 -88 80 -15 30 -32 62 -39 70 -7 8 -25 38 -40 65 -15 28 -38
64 -50 80 -12 17 -25 40 -29 51 -3 12 -15 29 -25 39 -17 14 -27 15 -73 7 -29
-6 -106 -18 -170 -28 l-118 -17 0 -223 0 -222 -32 -29 c-30 -26 -95 -96 -152
-163 -12 -14 -30 -38 -39 -53 -10 -16 -26 -36 -35 -46 -9 -10 -42 -53 -72 -95
-80 -113 -90 -126 -101 -126 -5 0 -9 6 -9 13 0 7 -18 34 -40 61 -22 26 -40 52
-40 56 0 5 -6 15 -13 22 -7 7 -37 46 -66 85 -29 40 -57 73 -62 73 -5 0 -9 6
-9 13 0 6 -40 55 -90 106 l-90 95 0 216 0 216 -127 18 c-71 10 -148 23 -172
28 -35 7 -48 6 -59 -6 -15 -15 -83 -123 -152 -241 -22 -38 -44 -77 -49 -85 -5
-8 -12 -22 -14 -31 -4 -11 -22 -19 -54 -23 -26 -4 -92 -18 -145 -32 -53 -13
-101 -24 -107 -24 -15 0 -7 18 122 282 63 128 137 279 163 335 35 73 54 103
67 103 9 0 66 -16 126 -35z m121 -471 c0 -6 7 -17 15 -24 23 -19 18 -37 -29
-109 -80 -120 -96 -172 -103 -336 -3 -79 -10 -142 -15 -139 -4 3 -8 12 -8 21
0 9 -18 53 -39 97 -71 146 -77 163 -58 184 10 10 17 26 17 35 0 9 4 18 9 21
11 7 71 112 71 125 0 5 16 33 35 62 19 30 35 57 35 62 0 4 8 19 17 33 l17 26
18 -24 c9 -12 18 -28 18 -34z m1467 -1 c16 -27 37 -61 45 -78 50 -101 111
-212 124 -226 16 -18 7 -51 -28 -98 -10 -13 -18 -29 -18 -36 0 -7 -20 -48 -45
-91 l-45 -79 0 133 c0 127 -2 137 -30 202 -16 38 -30 71 -30 74 0 3 -16 30
-35 60 -19 30 -35 64 -35 75 0 15 56 111 65 111 1 0 15 -21 32 -47z m-1162
-453 c4 -6 22 -17 40 -24 27 -12 36 -23 45 -58 6 -24 22 -80 35 -124 14 -45
25 -90 25 -100 -1 -18 -1 -18 -13 0 -34 55 -154 279 -176 329 -5 12 36 -10 44
-23z m791 -65 c-20 -36 -36 -71 -36 -77 0 -6 -18 -37 -40 -70 -22 -33 -40 -65
-40 -72 -1 -12 -30 -54 -30 -42 0 4 9 38 19 74 11 37 25 95 31 128 7 34 15 66
19 71 12 19 106 72 109 63 2 -6 -12 -40 -32 -75z"/>
</g>
</svg>
